Coordinates
version=1
nRows=14
nColumns=42
inDegrees=yes

Units are S.I. units (second, meters, Newtons, ...)
If the header above contains a line with 'inDegrees', this indicates whether rotational values are in degrees (yes) or radians (no).

endheader
time	pelvis_tilt	pelvis_list	pelvis_rotation	pelvis_tx	pelvis_ty	pelvis_tz	hip_flexion_r	hip_adduction_r	hip_rotation_r	knee_angle_r	knee_adduction_r	knee_angle_r_beta	ankle_angle_r	subtalar_angle_r	mtp_angle_r	hip_flexion_l	hip_adduction_l	hip_rotation_l	knee_angle_l	knee_adduction_l	knee_angle_l_beta	ankle_angle_l	subtalar_angle_l	mtp_angle_l	lumbar_extension	lumbar_bending	lumbar_rotation	arm_flex_r	arm_add_r	arm_rot_r	elbow_flex_r	pro_sup_r	wrist_flex_r	wrist_dev_r	arm_flex_l	arm_add_l	arm_rot_l	elbow_flex_l	pro_sup_l	wrist_flex_l	wrist_dev_l
      0.97000000	     -5.85940091	      1.52769027	      0.87630006	     -0.67926613	      0.93253251	     -0.08646687	     -7.71425596	      1.74953754	     -3.49095632	     32.32722738	     -1.54731822	      0.56421656	      1.81079935	     -9.74245600	     -7.60630566	     26.96842902	      4.23072712	     12.56995062	     19.74191670	      3.42564734	      0.34456145	     -2.55755526	    -15.40472033	     -7.60630566	     -7.19557957	     -7.94549569	      2.31938049	      2.56496596	     -8.36286707	     -7.52823130	     25.33765556	     90.00000001	      0.00000000	      0.00000000	     -8.67494282	    -10.29151929	    -23.66611886	     16.13125686	     90.00000001	      0.00000000	      0.00000000
      0.98000000	     -6.15272205	      1.55511864	      0.90706732	     -0.66762965	      0.93462050	     -0.08757581	     -5.26338922	      1.31514436	     -4.26866122	     36.65348991	     -1.77563200	      0.63972408	      1.25788081	    -10.70691810	     -7.60297412	     26.30175505	      4.41971555	     12.14800669	     19.46724566	      3.12848980	      0.33976753	     -1.75444165	    -14.74968312	     -7.60297412	     -6.84851172	     -7.93502303	      2.12333954	      2.12653341	     -8.08362099	     -7.38894651	     24.51594364	     90.00000001	      0.00000000	      0.00000000	     -8.33717552	    -10.27546278	    -23.08675800	     16.68571503	     90.00000001	      0.00000000	      0.00000000
      0.99000000	     -6.17287006	      1.54698976	      0.97514843	     -0.65592108	      0.93719993	     -0.08857929	     -3.25775123	      1.00900596	     -5.02064403	     40.40592366	     -2.19552640	      0.70521641	      0.76368793	    -11.88834005	     -7.60010185	     25.16573639	      4.57108876	     11.88778390	     18.86710617	      2.79102795	      0.32929312	     -0.87536594	    -13.96741486	     -7.60010185	     -6.82393951	     -7.87898201	      1.87461776	      1.72993457	     -7.81457238	     -7.16748655	     23.70259182	     90.00000001	      0.00000000	      0.00000000	     -7.93419494	    -10.27738507	    -22.53092048	     17.28666531	     90.00000001	      0.00000000	      0.00000000
      1.00000000	     -6.46917776	      1.48908788	      1.03153587	     -0.64461467	      0.93935043	     -0.08961820	     -0.84504517	      0.69286886	     -5.45542797	     44.10848473	     -2.37747810	      0.76983829	      0.57992356	    -13.52978229	     -7.59450851	     24.43187338	      4.65625480	     11.78630048	     18.40257060	      2.55282198	      0.32118545	     -0.34658385	    -13.61919096	     -7.59450851	     -6.48452774	     -7.73979288	      1.63686429	      1.29341133	     -7.55448616	     -7.08190630	     22.96777518	     90.00000001	      0.00000000	      0.00000000	     -7.66032056	    -10.31308313	    -21.35188144	     18.09042133	     90.00000001	      0.00000000	      0.00000000
      1.01000000	     -6.25380536	      1.37956906	      1.20895033	     -0.63279195	      0.94228796	     -0.09061234	      0.74041919	      0.51480375	     -6.24896721	     47.00417750	     -2.83704826	      0.82037766	      0.56491129	    -14.64848981	     -7.59258905	     22.90075641	      4.66565149	     11.86966550	     17.52806496	      2.33986755	      0.30592245	      0.39655644	    -12.97933721	     -7.59258905	     -6.70537374	     -7.52911576	      1.21724607	      0.91034706	     -7.28340431	     -6.89918501	     22.26733491	     90.00000001	      0.00000000	      0.00000000	     -7.15933648	    -10.33508747	    -20.92007618	     18.62039769	     90.00000001	      0.00000000	      0.00000000
      1.02000000	     -6.43926522	      1.28144158	      1.42122594	     -0.62160627	      0.94461740	     -0.09189358	      2.89616987	      0.17297335	     -6.61388168	     49.88758473	     -2.79849686	      0.87070261	      0.63116656	    -15.98748691	     -7.58742498	     21.90740442	      4.77954968	     12.26358158	     16.75995696	      2.07286032	      0.29251643	      0.53426055	    -12.95688089	     -7.58742498	     -6.49627280	     -7.28797576	      0.80542894	      0.47096827	     -7.04159107	     -6.94700329	     21.66987959	     90.00000001	      0.00000000	      0.00000000	     -6.86282061	    -10.41446923	    -19.49644652	     19.53609714	     90.00000001	      0.00000000	      0.00000000
      1.03000000	     -6.16729180	      1.02152631	      1.70903073	     -0.60994460	      0.94757751	     -0.09298995	      4.30223361	      0.13452809	     -7.29556215	     51.96481893	     -3.06562287	      0.90695719	      0.98338992	    -16.58093187	     -7.58585112	     20.31184505	      4.61206348	     12.51686014	     15.83525074	      1.90993474	      0.27637726	      1.13703143	    -12.36538225	     -7.58585112	     -6.77705719	     -6.85989249	      0.28408017	      0.06933952	     -6.81773669	     -6.85876387	     21.14698807	     90.00000001	      0.00000000	      0.00000000	     -6.24846269	    -10.42855995	    -19.08238735	     20.01991589	     90.00000001	      0.00000000	      0.00000000
      1.04000000	     -6.01404902	      0.76358007	      2.03931289	     -0.59841872	      0.95034031	     -0.09417234	      5.82539373	      0.01847943	     -7.81419727	     53.72955758	     -3.06131250	      0.93775769	      1.34534858	    -17.00913700	     -7.58419068	     18.80512516	      4.48264337	     12.89949795	     14.80474143	      1.65705150	      0.25839148	      1.54409094	    -11.78689907	     -7.58419068	     -6.91074025	     -6.41639034	     -0.29053578	     -0.38604018	     -6.59814421	     -6.87808755	     20.71022646	     90.00000001	      0.00000000	      0.00000000	     -5.69868256	    -10.47222844	    -18.44858915	     20.58525828	     90.00000001	      0.00000000	      0.00000000
      1.05000000	     -5.87183521	      0.46989112	      2.41505579	     -0.58716529	      0.95298138	     -0.09548121	      7.32951545	     -0.07983010	     -8.12770797	     55.15640528	     -2.85531543	      0.96266088	      1.77307301	    -17.15015592	     -7.58207247	     17.31756096	      4.32618866	     13.33306839	     13.74285763	      1.36938605	      0.23985811	      1.77135146	    -11.33597769	     -7.58207247	     -7.05284882	     -5.89757207	     -0.87581224	     -0.82841048	     -6.41291681	     -7.04281622	     20.38764946	     90.00000001	      0.00000000	      0.00000000	     -5.15782374	    -10.54139695	    -17.48691959	     21.29981593	     90.00000001	      0.00000000	      0.00000000
      1.06000000	     -5.64961883	     -0.00942625	      2.78388140	     -0.57607562	      0.95556444	     -0.09678725	      8.69127184	      0.05777847	     -8.40914431	     56.10783902	     -2.59097965	      0.97926653	      2.24852332	    -16.94925700	     -7.58118525	     16.04669490	      3.93801466	     13.05329322	     13.25679028	      1.09922433	      0.23137464	      2.04102464	    -10.96077938	     -7.58118525	     -7.30551743	     -5.14489589	     -1.48986001	     -1.27863042	     -6.31369242	     -7.08638662	     20.23879462	     90.00000001	      0.00000000	      0.00000000	     -4.45027230	    -10.48222173	    -17.13999107	     21.80257975	     90.00000001	      0.00000000	      0.00000000
      1.07000000	     -5.65862926	     -0.22617686	      3.09534449	     -0.56505294	      0.95774015	     -0.09771436	     10.31798414	     -0.05141501	     -8.31250904	     56.85409521	     -2.16736119	      0.99229115	      2.79472539	    -17.07091428	     -7.57899235	     14.44986973	      3.75743343	     13.92651027	     11.54845160	      0.83065574	      0.20155850	      2.37474858	    -10.17848024	     -7.57899235	     -7.27480495	     -4.76432279	     -1.95520042	     -1.78616707	     -6.06673141	     -7.47752964	     19.98832005	     90.00000001	      0.00000000	      0.00000000	     -3.93077204	    -10.72372128	    -15.73402190	     22.64508959	     90.00000001	      0.00000000	      0.00000000
      1.08000000	     -5.57014060	     -0.65262167	      3.44490219	     -0.55432865	      0.95971704	     -0.09887943	     11.81694044	      0.06065291	     -8.43964881	     57.21722063	     -1.84249735	      0.99862889	      3.27136533	    -16.74754012	     -7.57809653	     13.35705007	      3.42444879	     13.56428015	     11.06428958	      0.50052917	      0.19310828	      2.62067952	     -9.83529756	     -7.57809653	     -7.40111313	     -4.07999438	     -2.52622411	     -2.26340356	     -5.98172041	     -7.57521713	     19.94334909	     90.00000001	      0.00000000	      0.00000000	     -3.20417675	    -10.75723612	    -15.36043993	     23.21318449	     90.00000001	      0.00000000	      0.00000000
      1.09000000	     -5.57751901	     -0.89785166	      3.69359868	     -0.54364313	      0.96143572	     -0.09967912	     13.34921200	      0.04162501	     -7.92519763	     57.25556566	     -1.13412012	      0.99929814	      3.79312146	    -16.75378918	     -7.57533718	     11.81050057	      3.17297977	     14.29004033	      9.40643065	      0.17664412	      0.16417319	      2.83872187	     -9.08724684	     -7.57533718	     -7.40950767	     -3.66819180	     -2.90582096	     -2.75989836	     -5.75400452	     -8.28511869	     19.88471875	     90.00000001	      0.00000000	      0.00000000	     -2.71227775	    -11.09055498	    -13.46126076	     24.30832951	     90.00000001	      0.00000000	      0.00000000
      1.10000000	     -5.54327304	     -1.09872545	      4.08297242	     -0.53341459	      0.96286929	     -0.10067658	     14.84434550	      0.01418102	     -7.93401402	     57.01388088	     -0.94684632	      0.99507994	      3.96085866	    -16.13736131	     -7.57467449	     11.03153470	      3.05889427	     13.75014393	      9.38914396	      0.01123624	      0.16387148	      2.97196823	     -8.83770256	     -7.57467449	     -7.55335547	     -3.29753874	     -3.47790336	     -3.24730694	     -5.61164516	     -8.30133319	     19.90757466	     90.00000001	      0.00000000	      0.00000000	     -1.79428553	    -11.20403800	    -13.33247006	     24.92095761	     90.00000001	      0.00000000	      0.00000000
